<?xml version="1.0" encoding="UTF-8" standalone="no"?>
<!-- Created with Inkscape (http://www.inkscape.org/) -->

<svg
   version="1.1"
   id="svg2"
   xml:space="preserve"
   width="2654.6663"
   height="689.74133"
   viewBox="0 0 2654.6662 689.74133"
   sodipodi:docname="e729132c53e4a648c0b3d57dba2f48a8.ai"
   xmlns:inkscape="http://www.inkscape.org/namespaces/inkscape"
   xmlns:sodipodi="http://sodipodi.sourceforge.net/DTD/sodipodi-0.dtd"
   xmlns="http://www.w3.org/2000/svg"
   xmlns:svg="http://www.w3.org/2000/svg"><defs
     id="defs6"><clipPath
       clipPathUnits="userSpaceOnUse"
       id="clipPath20"><path
         d="M 0,517.306 H 1991 V 0 H 0 Z"
         id="path18" /></clipPath></defs><sodipodi:namedview
     id="namedview4"
     pagecolor="#ffffff"
     bordercolor="#666666"
     borderopacity="1.0"
     inkscape:pageshadow="2"
     inkscape:pageopacity="0.0"
     inkscape:pagecheckerboard="0" /><g
     id="g8"
     inkscape:groupmode="layer"
     inkscape:label="e729132c53e4a648c0b3d57dba2f48a8"
     transform="matrix(1.3333333,0,0,-1.3333333,0,689.74131)"><g
       id="g10"
       transform="translate(1390.9523,502.0643)"><path
         d="M 0,0 -58.849,-126.868 -115.21,0 h -101.883 l 108.759,-216.749 v -82.757 h 97.756 v 82.63 L 103.822,0 Z"
         style="fill:#ff6908;fill-opacity:1;fill-rule:nonzero;stroke:none"
         id="path12" /></g><g
       id="g14"><g
         id="g16"
         clip-path="url(#clipPath20)"><g
           id="g22"
           transform="translate(120.3178,335.5214)"><path
             d="M 0,0 V 103.193 C 59.826,100.378 74.213,74.79 74.213,53.928 74.213,24.288 54.357,1.109 0,0 m -0.106,181.334 c -35.052,1.65 -94.78,-1.623 -120.212,-3.514 l 2.045,-75.817 24.362,1.523 0.006,-236.193 H 0 v 59.027 c 137.235,6.549 169.296,79.736 169.296,131.366 0,73.242 -59.694,118.446 -169.402,123.608"
             style="fill:#ff6908;fill-opacity:1;fill-rule:nonzero;stroke:none"
             id="path24" /></g><g
           id="g26"
           transform="translate(1552.3683,388.7366)"><path
             d="m 0,0 c 7.312,30.194 26.538,50.811 58.538,50.811 30.495,0 52.758,-18.115 55.078,-50.811 z m 58.238,124.351 c -90.673,0 -153.437,-65.778 -153.437,-156.401 0,-90.625 60.514,-158.058 162.206,-158.058 42.363,0 79.186,9.228 110.062,30.16 l -33.783,69.482 c -22.117,-14.222 -45.318,-21.945 -72.302,-21.945 -37.443,0 -60.913,17.879 -70.036,48.899 h 199.678 c 1.722,8.991 3.268,26.534 3.127,42.109 -0.58,64.474 -34.557,145.754 -145.515,145.754"
             style="fill:#ff6908;fill-opacity:1;fill-rule:nonzero;stroke:none"
             id="path28" /></g><g
           id="g30"
           transform="translate(729.7523,334.2092)"><path
             d="M 0,0 V 102.169 C 59.235,99.382 73.479,74.048 73.479,53.393 73.479,24.045 53.819,1.098 0,0 m -0.104,179.537 c -34.705,1.635 -93.841,-1.605 -119.021,-3.48 l 2.023,-75.065 24.122,1.506 0.005,-233.852 H 0 v 58.442 c 135.875,6.484 167.62,78.946 167.62,130.064 0,72.516 -59.101,117.274 -167.724,122.385"
             style="fill:#ff6908;fill-opacity:1;fill-rule:nonzero;stroke:none"
             id="path32" /></g><g
           id="g34"
           transform="translate(1920.0997,380.7919)"><path
             d="m 0,0 c -16.746,6.755 -36.92,14.227 -50.049,20.194 -12.847,5.829 -17.389,11.656 -17.389,20.502 0,11.735 12.132,18.139 27.572,18.139 23.645,0 42.102,-10.905 58.701,-28.646 L 70.9,84.319 c -22.32,30.066 -60.646,48.99 -109.564,48.99 -66.264,0 -117.998,-31.969 -117.998,-95.014 0,-49.804 24.016,-73.741 70.602,-93.896 13.228,-5.724 30.91,-10.811 44.161,-16.44 11.565,-4.909 18.837,-10.105 18.837,-19.615 0,-8.8 -7.713,-15.947 -30.088,-15.947 -20.642,0 -50.34,8.28 -71.965,22.342 l -31.658,-64.835 c 30.124,-21.795 66.521,-30.738 103.726,-30.738 57.769,0 119.716,25.018 119.716,92.277 C 66.669,-37.899 34.265,-13.829 0,0"
             style="fill:#ff6908;fill-opacity:1;fill-rule:nonzero;stroke:none"
             id="path36" /></g><g
           id="g38"
           transform="translate(456.5223,284.5453)"><path
             d="m 0,0 c -41.899,0 -68.473,32.235 -68.473,72.374 0,40.15 26.574,72.379 68.473,72.379 41.906,0 68.478,-32.229 68.478,-72.379 C 68.478,32.235 41.906,0 0,0 m -0.71,226.656 c -86.235,0 -157.992,-64.036 -157.992,-154.873 0,-90.836 71.757,-154.867 157.992,-154.867 86.248,0 157.998,64.031 157.998,154.867 0,90.837 -71.75,154.873 -157.998,154.873"
             style="fill:#ff6908;fill-opacity:1;fill-rule:nonzero;stroke:none"
             id="path40" /></g><g
           id="g42"
           transform="translate(1000.1139,388.7366)"><path
             d="M 0,0 C 7.313,30.194 26.536,50.811 58.538,50.811 89.031,50.811 111.087,33.02 113.615,0 Z M 58.237,124.351 C -32.436,124.351 -95.2,58.573 -95.2,-32.05 c 0,-90.625 59.136,-158.058 163.036,-158.058 46.478,0 87.122,11.278 119.722,36.574 l -36.636,67.065 c -23.928,-16.602 -49.686,-25.942 -79.11,-25.942 -39.123,0 -62.196,17.879 -71.036,48.899 h 199.888 c 1.721,8.991 3.231,26.534 3.089,42.109 -0.582,64.474 -34.557,145.754 -145.516,145.754"
             style="fill:#ff6908;fill-opacity:1;fill-rule:nonzero;stroke:none"
             id="path44" /></g><g
           id="g46"
           transform="translate(303.0573,91.3422)"><path
             d="M 0,0 H 20.327 V -70.758 H 61.109 V -90.056 H 0 Z"
             style="fill:#ff6908;fill-opacity:1;fill-rule:nonzero;stroke:none"
             id="path48" /></g><g
           id="g50"
           transform="translate(441.9344,26.3093)"><path
             d="m 0,0 c 3.815,4.674 5.725,11.341 5.725,20.005 0,8.662 -1.91,15.329 -5.725,20.005 -3.818,4.674 -9.07,7.011 -15.76,7.011 -6.689,0 -11.944,-2.337 -15.76,-7.011 -3.817,-4.676 -5.724,-11.343 -5.724,-20.005 0,-8.664 1.907,-15.331 5.724,-20.005 3.816,-4.676 9.071,-7.012 15.76,-7.012 6.69,0 11.942,2.336 15.76,7.012 m -37.952,-20.842 c -6.477,3.645 -11.536,8.962 -15.181,15.953 -3.646,6.99 -5.468,15.287 -5.468,24.894 0,9.605 1.822,17.902 5.468,24.894 3.645,6.989 8.704,12.306 15.181,15.953 6.475,3.644 13.872,5.467 22.192,5.467 8.318,0 15.716,-1.823 22.192,-5.467 6.475,-3.647 11.535,-8.964 15.181,-15.953 3.645,-6.992 5.468,-15.289 5.468,-24.894 0,-9.607 -1.823,-17.904 -5.468,-24.894 -3.646,-6.991 -8.706,-12.308 -15.181,-15.953 -6.476,-3.646 -13.874,-5.467 -22.192,-5.467 -8.32,0 -15.717,1.821 -22.192,5.467"
             style="fill:#ff6908;fill-opacity:1;fill-rule:nonzero;stroke:none"
             id="path52" /></g><g
           id="g54"
           transform="translate(503.6212,9.456)"><path
             d="M 0,0 C -6.606,6.304 -9.906,15.888 -9.906,28.753 V 81.886 H 10.42 V 32.098 c 0,-8.149 1.351,-13.894 4.053,-17.239 2.702,-3.345 6.967,-5.017 12.801,-5.017 5.574,0 9.777,1.714 12.608,5.146 2.83,3.429 4.245,9.176 4.245,17.239 V 81.886 H 64.454 V 28.753 C 64.454,15.888 61.151,6.304 54.548,0 47.942,-6.304 38.852,-9.456 27.274,-9.456 15.695,-9.456 6.603,-6.304 0,0"
             style="fill:#ff6908;fill-opacity:1;fill-rule:nonzero;stroke:none"
             id="path56" /></g><path
           d="M 596.763,91.342 H 617.09 V 1.286 h -20.327 z"
           style="fill:#ff6908;fill-opacity:1;fill-rule:nonzero;stroke:none"
           id="path58" /><g
           id="g60"
           transform="translate(656.7777,3.9882)"><path
             d="m 0,0 c -5.705,2.657 -11.044,7.205 -16.017,13.637 l 16.21,12.351 c 5.918,-7.121 12.35,-10.679 19.297,-10.679 3.259,0 5.832,0.708 7.719,2.123 1.886,1.415 2.831,3.236 2.831,5.468 0,2.143 -0.817,3.879 -2.445,5.21 -1.63,1.329 -4.332,2.509 -8.105,3.538 l -8.748,2.445 c -8.063,2.229 -14.045,5.638 -17.947,10.227 -3.903,4.587 -5.853,10.441 -5.853,17.561 0,5.403 1.329,10.119 3.988,14.152 2.657,4.03 6.346,7.14 11.064,9.327 4.716,2.187 10.077,3.28 16.081,3.28 6.948,0 12.95,-1.672 18.011,-5.017 5.06,-3.345 9.006,-8.278 11.836,-14.795 L 33.127,57.636 c -1.286,3.773 -3.302,6.709 -6.046,8.812 -2.746,2.101 -5.747,3.152 -9.006,3.152 -3.345,0 -5.982,-0.687 -7.911,-2.058 -1.93,-1.373 -2.895,-3.175 -2.895,-5.404 0,-2.058 0.643,-3.795 1.929,-5.21 1.287,-1.415 3.388,-2.509 6.304,-3.281 l 9.649,-2.701 c 8.748,-2.489 15.223,-5.834 19.427,-10.035 4.2,-4.203 6.303,-9.693 6.303,-16.467 0,-5.577 -1.351,-10.507 -4.052,-14.795 C 44.127,5.359 40.332,2.014 35.443,-0.386 30.554,-2.786 24.849,-3.988 18.333,-3.988 11.814,-3.988 5.703,-2.659 0,0"
             style="fill:#ff6908;fill-opacity:1;fill-rule:nonzero;stroke:none"
             id="path62" /></g><path
           d="m 731.329,91.342 h 20.327 V 1.286 h -20.327 z"
           style="fill:#ff6908;fill-opacity:1;fill-rule:nonzero;stroke:none"
           id="path64" /><g
           id="g66"
           transform="translate(823.5704,39.7531)"><path
             d="M 0,0 -8.877,29.075 -17.753,0 Z m 5.661,-18.654 h -29.076 l -6.046,-19.813 H -50.56 l 30.105,90.056 H 2.702 L 32.806,-38.467 H 11.708 Z"
             style="fill:#ff6908;fill-opacity:1;fill-rule:nonzero;stroke:none"
             id="path68" /></g><g
           id="g70"
           transform="translate(877.7306,91.3422)"><path
             d="M 0,0 H 22.256 L 54.291,-61.109 V 0 H 73.846 V -90.056 H 51.589 L 19.555,-32.935 V -90.056 H 0 Z"
             style="fill:#ff6908;fill-opacity:1;fill-rule:nonzero;stroke:none"
             id="path72" /></g><g
           id="g74"
           transform="translate(1023.4908,39.7531)"><path
             d="M 0,0 -8.877,29.075 -17.753,0 Z m 5.661,-18.654 h -29.076 l -6.046,-19.813 H -50.56 l 30.105,90.056 H 2.702 L 32.806,-38.467 H 11.708 Z"
             style="fill:#ff6908;fill-opacity:1;fill-rule:nonzero;stroke:none"
             id="path76" /></g><g
           id="g78"
           transform="translate(1142.6183,39.3671)"><path
             d="M 0,0 -8.363,-10.035 V -38.081 H -28.689 V 51.975 H -8.363 V 18.397 L 18.783,51.975 H 43.226 L 13.894,16.725 43.87,-38.081 H 20.069 Z"
             style="fill:#ff6908;fill-opacity:1;fill-rule:nonzero;stroke:none"
             id="path80" /></g><path
           d="m 1207.07,91.342 h 20.327 V 1.286 h -20.327 z"
           style="fill:#ff6908;fill-opacity:1;fill-rule:nonzero;stroke:none"
           id="path82" /><g
           id="g84"
           transform="translate(1317.9664,72.0444)"><path
             d="M 0,0 H -24.444 V -70.758 H -44.771 V 0 H -69.214 V 19.298 H 0 Z"
             style="fill:#ff6908;fill-opacity:1;fill-rule:nonzero;stroke:none"
             id="path86" /></g><g
           id="g88"
           transform="translate(1355.1447,5.4677)"><path
             d="m 0,0 c -6.262,3.644 -11.128,8.941 -14.602,15.888 -3.474,6.947 -5.21,15.266 -5.21,24.958 0,9.605 1.821,17.903 5.467,24.895 3.645,6.989 8.62,12.306 14.924,15.952 6.303,3.645 13.358,5.468 21.163,5.468 10.72,0 18.867,-2.702 24.444,-8.105 5.573,-5.403 8.877,-13.424 9.905,-24.058 L 36.794,50.753 c -1.029,11.405 -6.047,17.11 -15.052,17.11 -6.091,0 -10.98,-2.36 -14.666,-7.076 C 3.387,56.07 1.543,49.38 1.543,40.718 c 0,-8.577 1.844,-15.203 5.533,-19.876 3.686,-4.676 8.575,-7.012 14.666,-7.012 4.716,0 8.446,1.286 11.193,3.859 2.743,2.573 4.888,6.433 6.432,11.579 L 58.922,25.022 C 56.52,15.159 52.167,7.611 45.864,2.38 39.56,-2.852 31.519,-5.468 21.742,-5.468 13.508,-5.468 6.259,-3.646 0,0"
             style="fill:#ff6908;fill-opacity:1;fill-rule:nonzero;stroke:none"
             id="path90" /></g><g
           id="g92"
           transform="translate(1436.9645,91.3422)"><path
             d="M 0,0 H 20.327 V -33.964 H 52.232 V 0 H 72.559 V -90.056 H 52.232 v 36.795 H 20.327 V -90.056 H 0 Z"
             style="fill:#ff6908;fill-opacity:1;fill-rule:nonzero;stroke:none"
             id="path94" /></g><g
           id="g96"
           transform="translate(1538.5988,91.3422)"><path
             d="M 0,0 H 59.951 V -19.298 H 20.327 v -15.181 h 35.25 V -53.776 H 20.327 V -70.758 H 60.723 V -90.056 H 0 Z"
             style="fill:#ff6908;fill-opacity:1;fill-rule:nonzero;stroke:none"
             id="path98" /></g><g
           id="g100"
           transform="translate(1623.7643,91.3422)"><path
             d="M 0,0 H 22.256 L 54.291,-61.109 V 0 H 73.845 V -90.056 H 51.589 L 19.555,-32.935 V -90.056 H 0 Z"
             style="fill:#ff6908;fill-opacity:1;fill-rule:nonzero;stroke:none"
             id="path102" /></g></g></g></g></svg>
